<?xml version="1.0" standalone="no"?>
<!DOCTYPE svg PUBLIC "-//W3C//DTD SVG 20010904//EN"
 "http://www.w3.org/TR/2001/REC-SVG-20010904/DTD/svg10.dtd">
<svg version="1.0" xmlns="http://www.w3.org/2000/svg"
 width="454.000000pt" height="454.000000pt" viewBox="0 0 454.000000 454.000000"
 preserveAspectRatio="xMidYMid meet">
<metadata>
Created by potrace 1.14, written by Peter Selinger 2001-2017
</metadata>
<g transform="translate(0.000000,454.000000) scale(0.100000,-0.100000)"
fill="#000000" stroke="none">
<path d="M1190 3580 c-6 -12 -10 -25 -8 -30 2 -4 31 -29 65 -54 82 -60 196
-195 238 -282 19 -39 35 -74 35 -77 0 -3 -21 -9 -47 -12 -27 -4 -67 -13 -90
-20 l-42 -14 -67 102 c-45 69 -98 133 -165 199 -56 54 -95 99 -89 103 19 12 0
26 -21 14 -16 -8 -28 -4 -62 21 -38 28 -43 29 -54 14 -6 -9 -16 -13 -21 -10
-5 3 -38 -2 -73 -12 -44 -12 -65 -23 -67 -35 -6 -30 26 -30 81 2 61 35 67 36
67 18 0 -8 11 -19 25 -25 27 -12 33 -28 13 -34 -18 -6 -1 -38 21 -38 11 0 24
8 30 17 8 15 13 14 53 -12 78 -52 212 -195 246 -264 18 -35 32 -70 32 -76 0
-7 -15 -19 -32 -26 -48 -20 -148 -125 -185 -195 -45 -85 -66 -179 -67 -304 0
-86 3 -113 20 -150 42 -92 172 -127 434 -117 111 5 148 10 208 32 70 25 73 25
97 8 19 -14 24 -27 25 -58 1 -49 30 -117 60 -138 22 -15 22 -17 7 -41 -24 -36
-98 -97 -216 -179 -58 -40 -106 -77 -108 -82 -2 -6 4 -20 12 -30 15 -20 15
-20 33 1 9 11 73 54 141 95 68 41 140 89 161 107 23 19 41 28 45 22 3 -6 20
-17 36 -25 26 -14 35 -14 82 0 28 8 93 18 142 21 l90 6 -50 -51 c-53 -55 -155
-126 -295 -206 -47 -27 -87 -50 -89 -52 -7 -5 31 -43 42 -43 6 0 20 9 31 19
12 11 86 53 165 95 79 41 170 96 202 121 33 26 59 44 59 41 0 -12 -92 -322
-105 -353 -20 -47 -12 -56 31 -36 29 14 34 21 29 40 -3 14 13 71 42 150 25 71
61 175 79 233 28 92 35 105 59 113 35 12 41 2 50 -76 8 -65 1 -204 -21 -397
-7 -68 -11 -126 -8 -129 3 -3 17 2 32 12 22 13 26 23 24 49 -2 26 26 268 54
465 6 41 21 36 90 -27 66 -59 168 -113 269 -141 102 -28 271 -30 395 -5 47 10
96 20 110 23 24 4 28 -3 94 -172 39 -98 73 -170 77 -164 5 8 17 4 40 -14 74
-55 352 -188 365 -174 3 3 -35 28 -83 57 -48 29 -129 84 -180 122 -94 70 -108
77 -116 56 -3 -7 -6 1 -6 18 -1 17 -13 49 -27 70 -24 34 -94 203 -94 224 0 5
11 20 25 34 21 21 25 34 25 84 0 90 -57 197 -166 311 -65 69 -92 106 -120 167
-37 82 -36 94 13 108 18 6 23 1 33 -30 7 -20 47 -74 90 -121 43 -47 103 -120
134 -162 61 -85 227 -360 356 -589 47 -83 88 -152 93 -152 4 0 15 -8 25 -18
38 -38 423 -184 440 -167 3 2 -7 9 -21 14 -51 19 -245 120 -320 165 -83 50
-92 53 -101 31 -12 -33 -26 -12 -26 41 0 50 -4 61 -32 93 -18 20 -75 115 -127
211 -240 448 -329 599 -423 719 -37 47 -54 61 -74 61 -18 0 -28 -6 -31 -21 -3
-11 -11 -18 -19 -15 -7 3 -24 -4 -37 -15 -30 -23 -47 -24 -47 -4 0 17 -54 81
-80 95 -13 7 -25 4 -44 -11 -17 -13 -26 -16 -26 -8 0 23 -73 170 -80 162 -4
-4 -15 -37 -24 -73 -10 -36 -36 -111 -57 -167 l-40 -102 -55 -7 c-30 -3 -57
-4 -60 -1 -3 3 11 47 31 99 45 112 102 278 115 333 l9 40 -69 66 c-124 118
-278 180 -490 195 l-87 6 -21 -36 c-19 -32 -127 -296 -163 -398 -7 -21 -16
-38 -19 -38 -3 0 -25 19 -48 43 l-42 43 34 85 c19 46 50 122 70 169 20 46 36
88 36 93 0 25 -162 -39 -227 -89 -19 -14 -37 -40 -44 -63 l-11 -38 -77 39
c-45 23 -97 41 -129 45 -50 6 -53 8 -70 47 -52 116 -238 349 -333 417 l-28 20
-11 -21z m1228 -352 c12 0 22 -4 22 -8 0 -13 39 -19 47 -8 4 7 11 4 19 -7 8
-11 25 -18 44 -17 17 0 28 -4 25 -9 -6 -8 15 -13 42 -10 7 1 22 -7 34 -17 13
-13 29 -18 42 -14 12 3 19 1 15 -3 -10 -11 29 -38 42 -30 6 3 13 0 16 -9 3 -8
19 -19 34 -25 27 -9 28 -12 20 -43 -6 -18 -10 -34 -10 -35 0 -2 -5 -3 -11 -3
-7 0 -9 11 -6 29 7 34 -20 53 -39 27 -17 -24 -27 -19 -20 8 8 33 -29 47 -49
19 -13 -17 -14 -16 -15 9 0 36 -39 60 -47 29 -8 -30 -26 -26 -21 3 3 16 0 27
-9 30 -24 10 -33 7 -33 -9 0 -24 -18 -17 -22 8 -4 26 -48 38 -48 13 0 -25 -18
-19 -22 7 -4 30 -48 38 -48 8 0 -12 -4 -21 -10 -21 -5 0 -10 9 -10 20 0 27
-29 38 -45 17 -24 -33 -32 -17 -15 28 8 22 14 26 33 20 12 -4 32 -7 45 -7z
m-663 -278 c97 -53 128 -164 84 -305 -35 -113 -119 -177 -281 -212 -96 -20
-142 -12 -184 32 -63 67 -67 169 -13 300 80 192 243 268 394 185z m414 -379
c133 -90 262 -132 412 -135 l96 -1 -48 -53 c-27 -30 -49 -59 -49 -65 0 -7 -10
6 -23 28 -28 49 -65 58 -100 23 -18 -18 -34 -23 -72 -23 -28 -1 -57 -4 -67 -9
-12 -5 -18 -2 -23 14 -12 36 -66 90 -119 118 -42 22 -65 26 -129 27 -75 0 -78
1 -93 30 -13 26 -13 35 1 90 8 34 15 78 15 99 l0 38 68 -69 c37 -38 96 -88
131 -112z m970 14 c1 -25 -50 -56 -78 -48 -19 5 -17 9 22 53 43 49 55 48 56
-5z m-860 -460 l20 -35 -23 0 c-13 0 -37 3 -54 6 l-30 6 32 29 c17 16 32 29
33 29 0 0 10 -16 22 -35z"/>
<path d="M1451 2813 c-70 -88 -10 -171 79 -111 28 19 36 31 38 62 4 48 -19 76
-64 76 -23 0 -38 -7 -53 -27z m84 -17 c0 -22 -14 -29 -34 -17 -19 12 -6 43 16
39 10 -2 18 -12 18 -22z"/>
<path d="M1082 3573 c-44 -13 -53 -19 -50 -37 5 -32 34 -31 88 4 78 50 63 63
-38 33z"/>
<path d="M648 3424 c-58 -36 -71 -57 -42 -68 20 -8 32 0 77 50 59 66 50 70
-35 18z"/>
<path d="M820 3359 c-52 -41 -59 -62 -23 -67 15 -2 31 11 57 46 56 77 45 84
-34 21z"/>
<path d="M519 3312 c-57 -40 -69 -65 -32 -70 15 -2 31 9 57 44 32 41 43 64 33
64 -2 0 -28 -17 -58 -38z"/>
<path d="M702 3227 c-53 -53 -56 -67 -18 -67 14 0 30 15 49 46 44 73 29 82
-31 21z"/>
<path d="M390 3181 c-42 -37 -52 -52 -44 -61 7 -7 20 -10 30 -8 20 3 78 90 72
108 -2 6 -28 -11 -58 -39z"/>
<path d="M595 3075 c-62 -80 -64 -100 -11 -100 38 0 38 0 62 65 44 120 25 133
-51 35z"/>
<path d="M265 3033 c-31 -38 -59 -74 -62 -82 -7 -16 14 -31 45 -31 18 0 29 14
57 72 60 126 45 141 -40 41z"/>
<path d="M1515 1780 c-3 -5 -13 -32 -21 -60 -12 -41 -69 -174 -92 -215 -3 -5
7 1 23 15 38 34 145 199 145 223 0 11 -8 26 -17 33 -22 16 -30 17 -38 4z"/>
<path d="M1822 1667 c-5 -6 -19 -46 -30 -87 -11 -41 -37 -113 -56 -158 -37
-86 -41 -102 -28 -102 22 1 153 221 176 297 9 27 -45 71 -62 50z"/>
<path d="M2225 1516 c-18 -13 -18 -17 -3 -102 8 -49 27 -125 42 -169 l26 -80
-5 79 c-3 43 -5 126 -5 183 0 93 -2 103 -18 103 -10 0 -27 -6 -37 -14z"/>
<path d="M2541 1476 l-22 -24 29 -58 c50 -99 172 -248 185 -227 3 5 -13 40
-35 78 -23 39 -56 106 -75 150 -45 104 -53 112 -82 81z"/>
<path d="M1300 1447 c-30 -17 -90 -46 -135 -65 l-80 -33 66 6 c61 5 169 34
212 56 19 11 21 69 2 68 -5 0 -35 -14 -65 -32z"/>
<path d="M1595 1282 c-38 -26 -108 -66 -155 -89 -47 -23 -74 -40 -60 -38 83
15 208 49 260 72 61 26 71 42 54 87 -9 24 -22 20 -99 -32z"/>
</g>
</svg>
